<?xml version="1.0" encoding="utf-8"?>
<!-- Generator: Adobe Illustrator 23.0.1, SVG Export Plug-In . SVG Version: 6.00 Build 0)  -->
<svg version="1.1" id="Layer_1" xmlns="http://www.w3.org/2000/svg" xmlns:xlink="http://www.w3.org/1999/xlink" x="0px" y="0px"
	 viewBox="0 0 100 100" style="enable-background:new 0 0 100 100;" xml:space="preserve">
<path d="M87,24H13c-2.21,0-4,1.79-4,4v44c0,0.37,0.07,0.73,0.16,1.07l23.45-22.51c0.68-0.65,1.72-0.74,2.5-0.22l13.59,9.05
	l26.84-28.75c0.69-0.75,1.84-0.85,2.66-0.24L91,40V28C91,25.79,89.21,24,87,24z M34,44c-3.86,0-7-3.14-7-7s3.14-7,7-7s7,3.14,7,7
	S37.86,44,34,44z M90.79,44.84L91,45v27c0,2.21-1.79,4-4,4H13c-0.34,0-0.66-0.05-0.97-0.13l1.76-1.69l20.44-19.63l11.29,7.54
	l2.37,1.57c0.82,0.55,1.91,0.42,2.57-0.3l4.58-4.9l22.2-23.78L90.79,44.84z M37,37c0,1.65-1.35,3-3,3s-3-1.35-3-3c0-1.65,1.35-3,3-3
	S37,35.35,37,37z"/>
</svg>
