<?xml version="1.0" encoding="utf-8"?>
<!-- Generator: Adobe Illustrator 23.0.1, SVG Export Plug-In . SVG Version: 6.00 Build 0)  -->
<svg version="1.1" id="Layer_1" 
	xmlns="http://www.w3.org/2000/svg" 
	xmlns:xlink="http://www.w3.org/1999/xlink" x="0px" y="0px" viewBox="0 0 100 100" style="enable-background:new 0 0 100 100;" xml:space="preserve">
	<path d="M93,19H7c-1.1,0-2,0.9-2,2v58c0,1.1,0.9,2,2,2h86c1.1,0,2-0.9,2-2V21C95,19.9,94.1,19,93,19z M91,77H9V23h82V77z
	 M15.48,70.3c-0.72-0.84-0.62-2.1,0.22-2.82l21-18c0.75-0.64,1.85-0.64,2.6,0l7.21,6.18l17.07-17.07c0.78-0.78,2.05-0.78,2.83,0
	l18,18c0.78,0.78,0.78,2.05,0,2.83C84.02,59.8,83.51,60,83,60s-1.02-0.2-1.41-0.59L65,42.83L49.56,58.27l10.74,9.21
	c0.84,0.72,0.94,1.98,0.22,2.82C60.12,70.76,59.56,71,59,71c-0.46,0-0.92-0.16-1.3-0.48L38,53.63L18.3,70.52
	C17.46,71.24,16.2,71.14,15.48,70.3z M25,46c3.86,0,7-3.14,7-7s-3.14-7-7-7s-7,3.14-7,7S21.14,46,25,46z M25,36c1.65,0,3,1.35,3,3
	s-1.35,3-3,3s-3-1.35-3-3S23.35,36,25,36z"/>
</svg>
