<?xml version="1.0" encoding="utf-8"?>
<!-- Generator: Adobe Illustrator 23.0.1, SVG Export Plug-In . SVG Version: 6.00 Build 0)  -->
<svg version="1.1" id="Layer_1" xmlns="http://www.w3.org/2000/svg" xmlns:xlink="http://www.w3.org/1999/xlink" x="0px" y="0px"
	 viewBox="0 0 100 100" style="enable-background:new 0 0 100 100;" xml:space="preserve">
<path d="M89.24,74.41l-7.65-7.65C81.21,66.38,81,65.88,81,65.34V36C81,18.91,67.09,5,50,5S19,18.91,19,36v29.34
	c0,0.54-0.21,1.04-0.59,1.42l-7.65,7.65C9.62,75.55,9,77.05,9,78.66V81c0,3.31,2.69,6,6,6h25.2c0.93,4.56,4.97,8,9.8,8
	s8.87-3.44,9.8-8H85c3.31,0,6-2.69,6-6v-2.34C91,77.05,90.38,75.55,89.24,74.41z M50,91c-2.61,0-4.82-1.67-5.65-4h11.3
	C54.82,89.33,52.61,91,50,91z M87,81c0,1.1-0.9,2-2,2H15c-1.1,0-2-0.9-2-2v-2.34c0-0.54,0.21-1.04,0.59-1.42l7.65-7.65
	c1.14-1.14,1.76-2.64,1.76-4.25V36C23,21.11,35.11,9,50,9s27,12.11,27,27v29.34c0,1.61,0.62,3.11,1.76,4.25l7.65,7.65
	c0.38,0.38,0.59,0.88,0.59,1.42V81z"/>
</svg>
