<?xml version="1.0" encoding="utf-8"?>
<!-- Generator: Adobe Illustrator 23.0.1, SVG Export Plug-In . SVG Version: 6.00 Build 0)  -->
<svg version="1.1" id="Layer_1" xmlns="http://www.w3.org/2000/svg" xmlns:xlink="http://www.w3.org/1999/xlink" x="0px" y="0px"
	 viewBox="0 0 100 100" style="enable-background:new 0 0 100 100;" xml:space="preserve">
<path d="M50,5C25.19,5,5,25.19,5,50c0,24.81,20.19,45,45,45c24.81,0,45-20.19,45-45C95,25.19,74.81,5,50,5z M50,91
	C27.39,91,9,72.61,9,50S27.39,9,50,9s41,18.39,41,41S72.61,91,50,91z M52,17v33c0,0.13-0.01,0.26-0.04,0.39
	c-0.01,0.06-0.03,0.11-0.05,0.17c-0.02,0.07-0.04,0.14-0.06,0.2c-0.03,0.07-0.07,0.13-0.1,0.19c-0.03,0.05-0.05,0.1-0.08,0.15
	c-0.07,0.11-0.16,0.21-0.25,0.31l-16,16C35.02,67.8,34.51,68,34,68s-1.02-0.2-1.41-0.59c-0.78-0.78-0.78-2.05,0-2.83L48,49.17V17
	c0-1.1,0.9-2,2-2S52,15.9,52,17z"/>
</svg>
